# xmcd
#
# Track frame offsets: 
#        177
#        26035
#        40942
#        62060
#        72150
#        84600
#        106770
#        120645
#        133665
#        146025
#        159870
#        180300
#        191060
#        210755
#        226735
#        239117
#        250785
#        271070
#        287137
#
# Disc length: 4217 seconds
#
# Revision: 0
# Processed by: cddbd v1.5.2PL0 Copyright (c) Steve Scherf et al.
# Submitted via: ExactAudioCopy v0.99pb5
#
DISCID=07107713
DTITLE=Reverend Gary Davis - Delia
DYEAR=1971
DGENRE=Blues
TTITLE0=She's Funny That Way
TTITLE1=Cincinnati Flow
TTITLE2=Sally
TTITLE3=C C Rider
TTITLE4=Make Believe Stunt
TTITLE5=Delia
TTITLE6=Candy Man
TTITLE7=Samson And Delilah
TTITLE8=Lets Us Get Together
TTITLE9=Pure Religion
TTITLE10=Mountain Jack
TTITLE11=Cinicinnate Flow Rag
TTITLE12=Mama Let Me Lay It On You
TTITLE13=I Am A True Vine
TTITLE14=Candy Man
TTITLE15=Buck Dance
TTITLE16=Walkin' Dog Blues
TTITLE17=I Hear The Angels Sing
TTITLE18=Whistlin' Blues
EXTD=
EXTT0=
EXTT1=
EXTT2=
EXTT3=
EXTT4=
EXTT5=
EXTT6=
EXTT7=
EXTT8=
EXTT9=
EXTT10=
EXTT11=
EXTT12=
EXTT13=
EXTT14=
EXTT15=
EXTT16=
EXTT17=
EXTT18=
PLAYORDER=
